<?xml version="1.0" encoding="utf-8"?>
<!-- Designed by Vexels.com - 2020 All Rights Reserved - https://vexels.com/terms-and-conditions/  -->
<svg version="1.1" id="Layer_1" xmlns="http://www.w3.org/2000/svg" xmlns:xlink="http://www.w3.org/1999/xlink" x="0px" y="0px"
	 viewBox="0 0 1200 1200" enable-background="new 0 0 1200 1200" xml:space="preserve">
<g>
	<path fill="#202020" d="M191.064,1057.654c-14.45-3.734-24.596-6.88-34.812-9.257c-24.809-5.774,12.55-146.704,21.687-207.033
		c29.526-194.966,76.495-393.358,121.035-585.329c6.087-26.236,10.285-52.932,14.705-79.526c2.013-12.11,7.291-20.984,18.261-27.256
		c42.257-24.159,158.921-105.471,189.02-98.873c141.661,31.053,314.385,63.399,457.812,84.68
		c18.956,2.813,37.766,6.868,56.296,11.757c2.892,0.763,5.839,1.577,8.31,3.249c4.655,3.15,6.854,8.833,7.641,14.313
		c2.527,17.595,0.165,34.924-1.706,52.403c-1.964,18.356-4.382,36.662-6.972,54.936c-5.201,36.704-11.04,73.344-17.903,109.769
		c-0.051,0.268-0.101,0.537-0.152,0.805c-20.509,108.476-41.407,216.88-62.771,325.189c-18.26,92.573-37.577,184.935-56.09,277.458
		c-8.746,43.707-16.93,87.531-24.931,131.383c-4.436,24.313-20.158,36.331-45.233,33.186
		c-142.692-17.897-285.537-34.648-428.003-54.254C333.422,1085.092,260.262,1069.849,191.064,1057.654z M839.425,1124.353
		c63.024-320.053,115.55-635.215,178.184-953.29c-170.706-13.296-327.334-50.073-489.787-85.516
		c-16.369,45.678-31.5,88.436-47.039,131.048c-8.157,22.368-13.543,24.511-35.811,16.988c-6.996-2.363-99.74-37.188-100.329-37.435
		c-62.274,276.675-105.68,556.285-167.307,829.76C396.534,1058.5,617.783,1091.397,839.425,1124.353z M503.12,78.119
		c-43.583,25.819-98.251,62.673-145.107,90.431c33.53,10.623,64.015,20.281,97.142,30.776
		C469.182,162.093,504.319,79.03,503.12,78.119z"/>
	<path fill="#202020" d="M417.995,405.925c-1.73-0.447-5.63-0.348-7.712-2.213c-2.42-2.166-4.642-4.545-6.8-6.994
		c-3.88-4.401-3.813-10.904,0.271-15.044c3.101-3.144,6.217-5.83,9.418-5.9c27.927-0.604,56.056-0.557,83.872,2.044
		c100.524,9.399,200.968,19.746,301.397,30.191c15.199,1.581,30.638,4.195,45.028,9.07c3.629,1.229,6.673,4.171,9.573,7.531
		c4.339,5.028,3.386,12.59-2.098,16.277c-3.44,2.313-6.879,4.138-10.319,4.105c-36.393-0.353-72.94-0.842-109.149-4.394
		c-97.844-9.598-195.547-20.747-293.298-31.36C431.877,408.556,425.645,407.2,417.995,405.925z"/>
	<path fill="#202020" d="M792.96,649.475c-73.089-6.191-146.166-12.945-219.042-21.358c-53.521-6.179-106.737-15.164-160.065-23.063
		c-8.878-1.315-18.265-2.094-26.246-5.679c-0.46-0.207-0.909-0.436-1.349-0.686c-10.241-5.82-9.474-21.667,1.871-24.676
		c0.677-0.18,1.358-0.289,2.043-0.314c20.485-0.755,41.26-0.535,61.619,1.939c100.19,12.171,200.293,25.097,300.398,37.987
		c19.382,2.496,38.879,4.993,57.854,9.479c3.959,0.936,7.776,2.476,11.529,4.287c7.963,3.842,7.179,15.199-1.263,17.684
		C810.874,647.852,800.064,650.077,792.96,649.475z"/>
	<path fill="#202020" d="M817.288,526.106c7.494,4.488,6.514,15.495-1.681,18.396c-6.913,2.447-13.166,4.356-19.362,4.137
		c-41.618-1.469-83.318-3.656-124.734-8.09c-76.154-8.154-152.143-17.972-228.167-27.376c-15.196-1.88-30.616-3.773-45.191-8.128
		c-3.424-1.023-6.345-3.718-9.146-6.812c-4.127-4.557-3.451-11.553,1.497-15.14c3.179-2.305,6.346-4.123,9.464-4.017
		c39.539,1.353,79.167,2.966,118.522,7.016c86.167,8.867,172.218,18.974,258.245,29.202
		C790.019,516.873,803.868,518.068,817.288,526.106z"/>
	<path fill="#202020" d="M570.816,980.507c2.086-6.265,5.429-12.493,7.704-17.989c4.117-9.946,8.419-19.818,12.921-29.599
		c8.98-19.508,18.759-38.658,29.439-57.311c11.352-19.827,23.721-39.09,37.164-57.603c8.558-11.786,17.055-12.513,22.932-1.632
		c3.593,6.652,5.852,17.684,6.663,25.155c4.306,39.694,10.329,148.345,6.206,161.875c-0.218,0.716-0.512,1.41-0.87,2.084
		c-3.458,6.504-11.825,8.979-18.724,6.473c-11.941-4.338-12.492-15.556-13.081-25.961c-0.084-1.491-0.662-21.754-1.015-21.785
		l-41.627-3.662c-1.133-0.1-7.555,12.934-8.238,14.077c-4.737,7.934-9.559,15.877-14.575,23.631
		c-2.875,4.444-7.185,8.584-12.556,8.891c-3.99,0.228-7.945-1.815-10.464-4.891c-2.519-3.076-3.693-7.068-3.785-10.995
		C568.827,987.756,569.612,984.125,570.816,980.507z M656.848,932.518c-0.735-17.354,1.736-46.025,1.074-61.664
		c-1.304-0.254-18.739,41.955-25.923,57.939C640.887,930.125,647.904,931.177,656.848,932.518z"/>
	<path fill="#202020" d="M384.023,705.263c-6.204-1.603-11.684-1.644-15.222-4.247c-1.474-1.084-2.86-2.284-4.192-3.556
		c-6.749-6.449-3.767-18.412,5.464-19.896c0.668-0.107,1.333-0.153,1.996-0.126c30.034,1.251,60.134,3.005,89.994,6.514
		c84.975,9.987,169.865,20.757,254.738,31.63c13.044,1.671,26.46,3.982,38.489,8.914c2.038,0.836,3.91,2.07,5.681,3.546
		c8.629,7.193,5.522,21.802-5.586,23.524c-0.784,0.121-1.565,0.174-2.344,0.143c-33.686-1.317-67.518-2.855-100.929-7.239
		c-82.752-10.858-165.308-23.28-247.928-35.179C396.874,708.237,389.67,706.406,384.023,705.263z"/>
	<path fill="#202020" d="M380.577,820.063c-7.313-2.422-13.576-3.193-18.091-6.374c-4.128-2.909-9.358-9.048-8.62-12.621
		c0.786-3.811,7.885-8.741,12.428-8.902c17.308-0.611,34.801-0.573,52.036,1.189c42.459,4.341,84.836,9.584,127.189,14.931
		c7.741,0.977,16.279,2.619,22.485,6.793c5.251,3.531,11.125,11.716,10.34,16.838c-0.766,5.002-9.132,11.483-15.019,12.422
		c-10.644,1.697-22.075,0.776-32.917-0.846C479.814,835.924,429.309,827.742,380.577,820.063z"/>
	<path fill="#202020" d="M544.897,303.242c4.022-15.073,20.481-8.581,32.774-7.186c59.668,6.772,119.369,13.176,178.922,20.98
		c6.622,0.868,16.74,10.086,17.215,15.977c0.925,11.477-10.644,14.757-20.52,13.567c-41.931-5.05-83.745-11.039-125.57-16.913
		C616.878,328.144,539.651,322.868,544.897,303.242z"/>
	<path fill="#202020" d="M790.105,876.039c-8.281,12.373-9.225,36.347-31.106,29.572c-19.843-6.144-8.863-25.415-7.746-41.036
		c-11.472-4.398-25.613-6.954-32.76-17.898c-0.753-1.154-1.429-2.409-1.556-3.769c-0.148-1.583,0.464-3.14,1.281-4.503
		c2.268-3.782,6.165-6.479,10.441-7.775c7.438-2.255,35.532,1.968,35.621,1.847c2.027-2.783,3.54-10.002,4.584-13.257
		c2.897-9.032,10.858-21.592,23.01-17.317c15.133,5.324,3.085,38.5,3.085,38.5s42.279,16.13,39.257,28.528
		C829.842,886.868,791.325,877.241,790.105,876.039z"/>
	<path fill="#202020" d="M791.521,231.489c-0.508-0.064-1.014-0.161-1.51-0.288c-14.078-3.598-27.534-5.964-39.966-10.883
		c-1.409-0.558-2.667-1.493-3.83-2.663c-6.297-6.332-4.568-17.45,3.731-20.706c1.18-0.463,2.345-0.705,3.488-0.618
		c35.173,2.657,70.278,6.456,105.34,10.483c9.16,1.052,18.542,4.758,18,16.034c-0.596,12.378-10.961,16.901-21.161,16.218
		C833.884,237.611,812.279,234.089,791.521,231.489z"/>
</g>
</svg>
